<svg width="759" height="415" viewBox="0 0 759 415" fill="none" xmlns="http://www.w3.org/2000/svg">
<path d="M657.47 408.033C636.273 405.321 626.202 402.291 621.401 385.926L629.546 374.291L636.527 363.819L646.999 345.202L651.653 331.24L653.98 314.951V296.334L641.181 283.536L636.527 271.901V253.284L621.401 247.467L612.093 230.014L607.439 210.234C566.414 178.34 549.385 155.586 486.433 141.586L468.98 146.24L451.527 157.875L436.401 175.328L427.093 198.599L422.439 210.234C422.439 210.234 430.584 228.85 427.093 230.014C423.602 231.177 422.439 230.014 422.439 230.014H407.313C403.152 229.257 400.802 229.3 396.841 223.033C396.592 222.378 396.524 221.291 396.841 214.888C395.565 209.808 395.832 205.973 396.841 198.599C399.125 190.184 399.046 185.973 407.313 175.328C409.052 166.453 411.303 161.691 422.439 154.385C419.629 149.136 418.758 146.256 422.439 141.586L430.584 119.479C433.887 113.183 435.98 109.579 443.382 102.026C449.378 95.2814 452.614 91.214 459.672 86.9005C465.395 78.3109 476.924 93.7736 486.433 86.9005C494.733 81.8664 495.02 62.028 503.885 60.1395C510.051 57.5068 516.33 55.975 531.81 53.1584C540.902 49.7088 548.728 48.8647 565.552 48.5043C576.071 48.774 583.113 50.3385 595.511 53.0934L595.804 53.1584C611.184 60.1616 618.249 63.6632 624.892 68.2842C637.333 74.9324 642.894 80.7169 651.653 92.7181C659.375 102.849 662.902 111.629 669.106 127.624C675.019 128.157 678.751 128.838 686.558 131.114C693.622 132.904 697.436 135.258 704.011 141.586C711.764 152.221 713.391 161.42 714.483 179.982C714.828 196.416 713.619 202.633 709.829 210.234C714.769 210.406 717.223 211.811 721.464 214.888C726.182 222.185 728.207 226.521 730.772 234.668C732.731 250.571 732.98 259.488 730.772 275.391C729.115 284.33 726.9 289.439 721.464 298.662C729.025 303.015 731.168 305.645 735.426 310.297C739.456 323.02 738.929 330.153 735.426 342.875C732.835 354.637 726.548 363.755 704.011 385.926C688.896 401.237 678.907 406.517 657.47 408.033Z" fill="#3D1A74" stroke="#3D1A74"/>
<path d="M415.92 186.117C426.931 186.117 435.858 177.191 435.858 166.179C435.858 155.167 426.931 146.24 415.92 146.24C404.908 146.24 395.981 155.167 395.981 166.179C395.981 177.191 404.908 186.117 415.92 186.117Z" fill="#3D1A74"/>
<path d="M408.939 214.042C419.95 214.042 428.877 205.115 428.877 194.103C428.877 183.092 419.95 174.165 408.939 174.165C397.927 174.165 389 183.092 389 194.103C389 205.115 397.927 214.042 408.939 214.042Z" fill="#3D1A74"/>
<path d="M637.994 253.284C655.986 253.284 670.572 238.698 670.572 220.706C670.572 202.713 655.986 188.127 637.994 188.127C620.001 188.127 605.415 202.713 605.415 220.706C605.415 238.698 620.001 253.284 637.994 253.284Z" fill="#3D1A74"/>
<path d="M661.264 236.995C693.394 236.995 719.44 210.949 719.44 178.819C719.44 146.689 693.394 120.643 661.264 120.643C629.134 120.643 603.088 146.689 603.088 178.819C603.088 210.949 629.134 236.995 661.264 236.995Z" fill="#3D1A74"/>
<path d="M700.824 311.46C732.954 311.46 759 285.414 759 253.284C759 221.154 732.954 195.108 700.824 195.108C668.694 195.108 642.648 221.154 642.648 253.284C642.648 285.414 668.694 311.46 700.824 311.46Z" fill="#3D1A74"/>
<path d="M668.245 302.152C686.238 302.152 700.824 287.566 700.824 269.573C700.824 251.581 686.238 236.995 668.245 236.995C650.253 236.995 635.667 251.581 635.667 269.573C635.667 287.566 650.253 302.152 668.245 302.152Z" fill="#3D1A74"/>
<path d="M675.226 413.85C647.635 410.007 633.472 406.232 618.214 387.089L734.566 292.844C748.492 310.77 751.177 321.851 749.692 342.875C748.658 360.908 744.87 370.514 734.566 387.089C715.483 407.781 702.01 412.437 675.226 413.85Z" fill="#3D1A74" stroke="#3D1A74"/>
<path d="M485.019 74.9795C508.052 79.3924 519.798 83.1731 531.806 99.9204L429.947 174.173C419.007 158.506 417.224 149.075 419.373 131.462C421.015 116.346 424.61 108.432 433.984 94.9372C450.914 78.358 462.441 75.0209 485.019 74.9795Z" fill="#3D1A74" stroke="#3D1A74"/>
<path d="M660.435 95.3205C675.335 132.71 680.804 153.128 668.472 185.366L472.111 102.741C483.917 73.0073 495.41 62.0943 521.88 49.6816C544.412 38.7328 558.708 36.9806 586.047 38.7068C624.58 48.7023 639.753 62.5215 660.435 95.3205Z" fill="#3D1A74" stroke="#3D1A74"/>
<path d="M608.969 210.504L562.788 227.687C561.258 227.631 560.399 227.514 558.874 222.777L559.657 217.05C560.34 215.04 561.212 214.287 562.788 212.959C579.134 207.21 605.055 202.322 606.621 202.322C608.186 202.322 612.261 201.798 615.231 202.322C617.315 202.731 619.025 203.147 622.276 203.959C624.902 204.824 627.527 206.482 632.451 209.686L644.975 221.141L632.451 212.959C627.911 211.638 625.643 211.075 622.276 210.504C617.334 209.413 614.501 209.071 608.969 210.504Z" fill="#3D1A74" stroke="#3D1A74"/>
<path d="M473.874 210.504L520.055 227.687C521.585 227.631 522.443 227.514 523.969 222.777L523.186 217.05C522.503 215.04 521.631 214.287 520.055 212.959C503.709 207.21 477.787 202.322 476.222 202.322C474.656 202.322 470.581 201.798 467.612 202.322C465.527 202.731 463.817 203.147 460.567 203.959C457.941 204.824 455.316 206.482 450.392 209.686L437.868 221.141L450.392 212.959C454.932 211.638 457.2 211.075 460.567 210.504C465.509 209.413 468.342 209.071 473.874 210.504Z" fill="#3D1A74" stroke="#3D1A74"/>
<g filter="url(#filter0_i)">
<path d="M104.256 286H5.04V280.24C8.208 280.144 10.8 279.856 12.816 279.376C14.832 278.896 16.368 278.08 17.424 276.928C18.48 275.776 19.2 274.144 19.584 272.032C19.968 269.92 20.16 267.184 20.16 263.824V197.296C20.16 193.936 19.968 191.248 19.584 189.232C19.296 187.12 18.672 185.488 17.712 184.336C16.752 183.088 15.36 182.272 13.536 181.888C11.808 181.408 9.504 181.072 6.624 180.88V175.12H56.304V180.88C53.04 180.976 50.4 181.264 48.384 181.744C46.464 182.224 44.976 183.088 43.92 184.336C42.864 185.584 42.144 187.312 41.76 189.52C41.472 191.728 41.328 194.656 41.328 198.304V258.64C41.328 262.672 41.712 265.984 42.48 268.576C43.344 271.072 44.784 273.04 46.8 274.48C48.816 275.824 51.504 276.784 54.864 277.36C58.224 277.84 62.4 278.08 67.392 278.08C72.96 278.08 77.616 277.744 81.36 277.072C85.104 276.4 88.224 275.152 90.72 273.328C93.312 271.408 95.376 268.864 96.912 265.696C98.448 262.528 99.744 258.4 100.8 253.312H106.56L104.256 286ZM155.935 208.24C161.695 208.24 167.119 209.248 172.207 211.264C177.391 213.184 181.903 215.872 185.743 219.328C189.679 222.784 192.751 226.912 194.959 231.712C197.263 236.416 198.415 241.6 198.415 247.264C198.415 253.12 197.263 258.496 194.959 263.392C192.751 268.288 189.679 272.512 185.743 276.064C181.903 279.616 177.391 282.4 172.207 284.416C167.119 286.432 161.695 287.44 155.935 287.44C150.271 287.44 144.895 286.48 139.807 284.56C134.719 282.544 130.255 279.76 126.415 276.208C122.575 272.656 119.551 268.432 117.343 263.536C115.135 258.544 114.031 253.12 114.031 247.264C114.031 241.6 115.135 236.368 117.343 231.568C119.551 226.768 122.575 222.64 126.415 219.184C130.255 215.728 134.719 213.04 139.807 211.12C144.895 209.2 150.271 208.24 155.935 208.24ZM155.935 216.592C153.055 216.592 150.415 217.36 148.015 218.896C145.615 220.336 143.551 222.4 141.823 225.088C140.191 227.776 138.895 231.04 137.935 234.88C137.071 238.624 136.639 242.8 136.639 247.408C136.639 252.208 137.071 256.528 137.935 260.368C138.895 264.208 140.191 267.472 141.823 270.16C143.551 272.848 145.567 274.96 147.871 276.496C150.271 277.936 152.959 278.656 155.935 278.656C158.911 278.656 161.599 277.936 163.999 276.496C166.495 274.96 168.607 272.848 170.335 270.16C172.063 267.376 173.407 264.064 174.367 260.224C175.327 256.384 175.807 252.112 175.807 247.408C175.807 242.8 175.327 238.624 174.367 234.88C173.407 231.136 172.063 227.92 170.335 225.232C168.607 222.448 166.495 220.336 163.999 218.896C161.599 217.36 158.911 216.592 155.935 216.592ZM235.158 219.04H235.734C242.07 211.84 250.326 208.24 260.502 208.24C266.07 208.24 271.158 209.248 275.766 211.264C280.47 213.184 284.502 215.92 287.862 219.472C291.318 222.928 293.958 227.104 295.782 232C297.702 236.8 298.662 242.08 298.662 247.84C298.662 253.6 297.702 258.88 295.782 263.68C293.958 268.48 291.366 272.656 288.006 276.208C284.646 279.76 280.614 282.544 275.91 284.56C271.302 286.48 266.262 287.44 260.79 287.44C251.478 287.44 244.374 284.272 239.478 277.936H238.902V297.952C238.902 301.792 239.094 304.864 239.478 307.168C239.862 309.472 240.678 311.248 241.926 312.496C243.174 313.744 244.902 314.608 247.11 315.088C249.414 315.568 252.438 315.856 256.182 315.952V322H206.502V315.952C209.094 315.856 211.206 315.568 212.838 315.088C214.47 314.608 215.718 313.744 216.582 312.496C217.542 311.248 218.166 309.52 218.454 307.312C218.838 305.2 219.03 302.416 219.03 298.96V245.392C219.03 240.976 218.934 236.8 218.742 232.864C218.55 228.832 218.31 226 218.022 224.368C217.542 222.16 216.438 220.624 214.71 219.76C213.078 218.896 210.246 218.464 206.214 218.464V212.848L235.158 208.816V219.04ZM259.638 216.448C256.566 216.448 253.638 217.12 250.854 218.464C248.07 219.808 245.862 221.584 244.23 223.792C242.598 226 241.35 228.784 240.486 232.144C239.622 235.408 239.19 238.96 239.19 242.8V252.592C239.19 259.408 240.87 265.216 244.23 270.016C247.878 275.296 253.014 277.936 259.638 277.936C265.494 277.936 269.814 275.536 272.598 270.736C275.478 265.84 276.918 258.304 276.918 248.128C276.918 227.008 271.158 216.448 259.638 216.448ZM381.932 272.608C373.196 282.496 362.3 287.44 349.244 287.44C343.292 287.44 337.868 286.528 332.972 284.704C328.172 282.784 324.044 280.144 320.588 276.784C317.132 273.328 314.444 269.248 312.524 264.544C310.604 259.84 309.644 254.608 309.644 248.848C309.644 242.896 310.652 237.472 312.668 232.576C314.684 227.584 317.516 223.312 321.164 219.76C324.908 216.112 329.276 213.28 334.268 211.264C339.356 209.248 344.924 208.24 350.972 208.24C361.148 208.24 369.068 210.976 374.732 216.448C380.396 221.92 383.228 229.6 383.228 239.488C383.228 241.024 382.988 241.984 382.508 242.368C382.028 242.656 380.684 242.8 378.476 242.8H332.108C331.724 243.664 331.532 245.248 331.532 247.552C331.532 256.96 333.548 264.4 337.58 269.872C341.708 275.344 347.276 278.08 354.284 278.08C358.316 278.08 362.3 277.168 366.236 275.344C370.268 273.52 374.156 270.928 377.9 267.568L381.932 272.608ZM353.996 234.736C357.836 234.736 360.284 234.544 361.34 234.16C362.492 233.68 363.068 232.624 363.068 230.992C363.068 226.768 361.868 223.312 359.468 220.624C357.068 217.936 354.044 216.592 350.396 216.592C346.268 216.592 342.572 218.32 339.308 221.776C336.14 225.136 334.076 229.456 333.116 234.736H353.996ZM350.828 192.256L331.532 183.616C328.46 182.272 326.012 180.976 324.188 179.728C322.46 178.48 321.596 177.04 321.596 175.408C321.596 173.392 322.316 171.808 323.756 170.656C325.196 169.504 327.116 168.928 329.516 168.928C331.436 168.928 333.356 169.408 335.276 170.368C337.292 171.328 339.452 172.912 341.756 175.12L360.044 192.256H350.828Z" fill="url(#paint0_linear)"/>
</g>
<g filter="url(#filter1_i)">
<path d="M152.144 341.448H111.392C106.88 351.624 104.624 358.68 104.624 362.616C104.624 365.496 105.68 367.32 107.792 368.088C110 368.856 113.264 369.24 117.584 369.24V375H78.128V369.24C80.432 368.952 82.4 368.568 84.032 368.088C85.76 367.608 87.248 366.936 88.496 366.072C89.84 365.208 90.992 364.104 91.952 362.76C92.912 361.32 93.824 359.592 94.688 357.576L132.56 262.68H143.216L177.632 346.776C179.648 351.672 181.328 355.512 182.672 358.296C184.112 361.08 185.6 363.24 187.136 364.776C188.768 366.216 190.592 367.224 192.608 367.8C194.72 368.376 197.408 368.808 200.672 369.096V375H146.24V369.096C150.848 368.904 154.16 368.424 156.176 367.656C158.192 366.888 159.2 365.352 159.2 363.048C159.2 361.704 158.864 359.976 158.192 357.864C157.52 355.752 156.608 353.16 155.456 350.088L152.144 341.448ZM114.704 332.808H148.976L132.416 289.176H131.84L114.704 332.808ZM233.59 352.68C233.59 356.424 233.734 359.4 234.022 361.608C234.406 363.72 235.126 365.352 236.182 366.504C237.238 367.656 238.774 368.424 240.79 368.808C242.806 369.096 245.494 369.24 248.854 369.24V375H200.758V369.24C203.638 369.048 205.942 368.76 207.67 368.376C209.398 367.992 210.694 367.224 211.558 366.072C212.422 364.92 212.95 363.288 213.142 361.176C213.43 358.968 213.574 356.04 213.574 352.392V334.824C213.574 328.872 213.43 324.12 213.142 320.568C212.854 317.016 212.23 314.28 211.27 312.36C210.31 310.44 208.918 309.192 207.094 308.616C205.366 307.944 203.062 307.608 200.182 307.608V302.568L228.982 297.24L231.286 313.8H231.862C234.454 308.712 237.862 304.68 242.086 301.704C246.31 298.728 250.774 297.24 255.478 297.24C259.126 297.24 262.102 298.152 264.406 299.976C266.71 301.8 267.862 304.104 267.862 306.888C267.862 309.96 266.95 312.552 265.126 314.664C263.398 316.776 260.998 317.832 257.926 317.832C256.486 317.832 255.19 317.544 254.038 316.968C252.886 316.392 251.83 315.768 250.87 315.096C250.006 314.328 249.094 313.656 248.134 313.08C247.27 312.408 246.358 312.072 245.398 312.072C243.574 312.072 241.846 313.272 240.214 315.672C238.582 318.072 237.238 321.288 236.182 325.32C235.414 328.2 234.79 331.464 234.31 335.112C233.83 338.664 233.59 342.216 233.59 345.768V352.68ZM305.164 351.384C305.164 355.224 305.308 358.296 305.596 360.6C305.884 362.904 306.46 364.68 307.324 365.928C308.188 367.176 309.436 368.04 311.068 368.52C312.7 368.904 314.908 369.144 317.692 369.24V375H272.332V369.24C275.02 369.144 277.18 368.856 278.812 368.376C280.54 367.8 281.836 366.936 282.7 365.784C283.66 364.536 284.284 362.856 284.572 360.744C284.956 358.536 285.148 355.752 285.148 352.392V334.68C285.148 329.112 285.052 324.552 284.86 321C284.668 317.352 284.428 314.856 284.14 313.512C283.66 311.112 282.556 309.528 280.828 308.76C279.196 307.992 276.172 307.608 271.756 307.608V302.712L305.164 297.24V351.384ZM283.996 266.712C283.996 263.544 285.052 260.904 287.164 258.792C289.372 256.584 292.012 255.48 295.084 255.48C298.252 255.48 300.892 256.584 303.004 258.792C305.212 260.904 306.316 263.544 306.316 266.712C306.316 269.784 305.212 272.424 303.004 274.632C300.892 276.744 298.252 277.8 295.084 277.8C292.012 277.8 289.372 276.744 287.164 274.632C285.052 272.424 283.996 269.784 283.996 266.712ZM359.828 397.608C358.772 399.72 357.428 401.688 355.796 403.512C354.26 405.336 352.484 406.872 350.468 408.12C348.548 409.464 346.532 410.52 344.42 411.288C342.308 412.056 340.196 412.44 338.084 412.44C334.916 412.44 332.372 411.672 330.452 410.136C328.532 408.6 327.572 406.536 327.572 403.944C327.572 401.544 328.388 399.672 330.02 398.328C331.748 396.984 334.484 396.168 338.228 395.88C346.772 395.208 352.292 392.52 354.788 387.816L358.676 380.328L333.188 317.256C332.036 314.472 331.028 312.264 330.164 310.632C329.396 309 328.532 307.752 327.572 306.888C326.612 305.928 325.508 305.304 324.26 305.016C323.012 304.728 321.476 304.536 319.652 304.44V298.68H363.284V304.44C359.54 304.44 356.9 304.824 355.364 305.592C353.924 306.264 353.204 307.56 353.204 309.48C353.204 310.248 353.3 311.16 353.492 312.216C353.78 313.176 354.116 314.184 354.5 315.24L369.188 357.288H369.764L382.148 329.208C383.396 326.232 384.452 323.784 385.316 321.864C386.18 319.848 386.804 318.168 387.188 316.824C387.668 315.384 388.004 314.232 388.196 313.368C388.388 312.504 388.484 311.64 388.484 310.776C388.484 308.28 387.764 306.6 386.324 305.736C384.98 304.872 382.196 304.44 377.972 304.44V298.68H412.676V304.44C410.756 304.44 409.124 304.728 407.78 305.304C406.436 305.784 405.044 306.84 403.604 308.472C402.26 310.104 400.724 312.552 398.996 315.816C397.364 318.984 395.3 323.208 392.804 328.488L359.828 397.608ZM456.154 297.24C461.914 297.24 467.338 298.248 472.426 300.264C477.61 302.184 482.122 304.872 485.962 308.328C489.898 311.784 492.97 315.912 495.178 320.712C497.482 325.416 498.634 330.6 498.634 336.264C498.634 342.12 497.482 347.496 495.178 352.392C492.97 357.288 489.898 361.512 485.962 365.064C482.122 368.616 477.61 371.4 472.426 373.416C467.338 375.432 461.914 376.44 456.154 376.44C450.49 376.44 445.114 375.48 440.026 373.56C434.938 371.544 430.474 368.76 426.634 365.208C422.794 361.656 419.77 357.432 417.562 352.536C415.354 347.544 414.25 342.12 414.25 336.264C414.25 330.6 415.354 325.368 417.562 320.568C419.77 315.768 422.794 311.64 426.634 308.184C430.474 304.728 434.938 302.04 440.026 300.12C445.114 298.2 450.49 297.24 456.154 297.24ZM456.154 305.592C453.274 305.592 450.634 306.36 448.234 307.896C445.834 309.336 443.77 311.4 442.042 314.088C440.41 316.776 439.114 320.04 438.154 323.88C437.29 327.624 436.858 331.8 436.858 336.408C436.858 341.208 437.29 345.528 438.154 349.368C439.114 353.208 440.41 356.472 442.042 359.16C443.77 361.848 445.786 363.96 448.09 365.496C450.49 366.936 453.178 367.656 456.154 367.656C459.13 367.656 461.818 366.936 464.218 365.496C466.714 363.96 468.826 361.848 470.554 359.16C472.282 356.376 473.626 353.064 474.586 349.224C475.546 345.384 476.026 341.112 476.026 336.408C476.026 331.8 475.546 327.624 474.586 323.88C473.626 320.136 472.282 316.92 470.554 314.232C468.826 311.448 466.714 309.336 464.218 307.896C461.818 306.36 459.13 305.592 456.154 305.592Z" fill="url(#paint1_linear)"/>
</g>
<defs>
<filter id="filter0_i" x="5.03998" y="168.928" width="378.188" height="157.072" filterUnits="userSpaceOnUse" color-interpolation-filters="sRGB">
<feFlood flood-opacity="0" result="BackgroundImageFix"/>
<feBlend mode="normal" in="SourceGraphic" in2="BackgroundImageFix" result="shape"/>
<feColorMatrix in="SourceAlpha" type="matrix" values="0 0 0 0 0 0 0 0 0 0 0 0 0 0 0 0 0 0 127 0" result="hardAlpha"/>
<feOffset dy="4"/>
<feGaussianBlur stdDeviation="2"/>
<feComposite in2="hardAlpha" operator="arithmetic" k2="-1" k3="1"/>
<feColorMatrix type="matrix" values="0 0 0 0 1 0 0 0 0 1 0 0 0 0 1 0 0 0 0.25 0"/>
<feBlend mode="normal" in2="shape" result="effect1_innerShadow"/>
</filter>
<filter id="filter1_i" x="78.128" y="255.48" width="420.506" height="160.96" filterUnits="userSpaceOnUse" color-interpolation-filters="sRGB">
<feFlood flood-opacity="0" result="BackgroundImageFix"/>
<feBlend mode="normal" in="SourceGraphic" in2="BackgroundImageFix" result="shape"/>
<feColorMatrix in="SourceAlpha" type="matrix" values="0 0 0 0 0 0 0 0 0 0 0 0 0 0 0 0 0 0 127 0" result="hardAlpha"/>
<feOffset dy="4"/>
<feGaussianBlur stdDeviation="2"/>
<feComposite in2="hardAlpha" operator="arithmetic" k2="-1" k3="1"/>
<feColorMatrix type="matrix" values="0 0 0 0 1 0 0 0 0 1 0 0 0 0 1 0 0 0 0.25 0"/>
<feBlend mode="normal" in2="shape" result="effect1_innerShadow"/>
</filter>
<linearGradient id="paint0_linear" x1="194.5" y1="146" x2="194.5" y2="325" gradientUnits="userSpaceOnUse">
<stop offset="0.536458" stop-color="#EC5281"/>
<stop offset="1" stop-color="#3D1A74"/>
</linearGradient>
<linearGradient id="paint1_linear" x1="292" y1="235" x2="292" y2="414" gradientUnits="userSpaceOnUse">
<stop offset="0.458333" stop-color="#EC5281"/>
<stop offset="1" stop-color="#3D1A74"/>
</linearGradient>
</defs>
</svg>
