<svg width="159" height="179" viewBox="0 0 159 179" fill="none" xmlns="http://www.w3.org/2000/svg">
<path d="M115.37 175.914C106.26 174.749 101.933 173.447 99.8697 166.414L103.37 161.414L106.37 156.914L110.87 148.914L112.87 142.914L113.87 135.914V127.914L108.37 122.414L106.37 117.414V109.414L99.8697 106.914L95.8697 99.414L93.8697 90.914C76.2401 77.2084 68.922 67.4301 41.8697 61.414L34.3697 63.414L26.8697 68.414L20.3697 75.914L16.3697 85.914L14.3697 90.914C14.3697 90.914 17.8697 98.914 16.3697 99.414C14.8697 99.914 14.3697 99.414 14.3697 99.414H7.86972C6.08156 99.0887 5.07174 99.1072 3.36972 96.414C3.26268 96.1327 3.23317 95.6657 3.36972 92.914C2.82107 90.731 2.93578 89.0832 3.36972 85.914C4.35125 82.298 4.31689 80.4885 7.86972 75.914C8.61695 72.1002 9.58445 70.0536 14.3697 66.914C13.162 64.6585 12.7878 63.4209 14.3697 61.414L17.8697 51.914C19.2895 49.2084 20.1886 47.6598 23.3697 44.414C25.9461 41.5155 27.3368 39.7677 30.3697 37.914C32.8291 34.2228 37.7835 40.8676 41.8697 37.914C45.4367 35.7507 45.56 27.2256 49.3697 26.414C52.0194 25.2827 54.7177 24.6244 61.3697 23.414C65.2767 21.9316 68.6399 21.5689 75.8697 21.414C80.3901 21.5299 83.4161 22.2022 88.744 23.3861L88.8697 23.414C95.479 26.4235 98.515 27.9283 101.37 29.914C106.716 32.771 109.106 35.2567 112.87 40.414C116.188 44.7674 117.704 48.5404 120.37 55.414C122.911 55.643 124.514 55.9359 127.87 56.914C130.905 57.6833 132.544 58.6945 135.37 61.414C138.701 65.9843 139.4 69.9374 139.87 77.914C140.018 84.976 139.498 87.6476 137.87 90.914C139.993 90.9879 141.047 91.5919 142.87 92.914C144.897 96.0499 145.768 97.9133 146.87 101.414C147.711 108.248 147.818 112.08 146.87 118.914C146.157 122.756 145.206 124.951 142.87 128.914C146.119 130.785 147.04 131.915 148.87 133.914C150.601 139.381 150.375 142.447 148.87 147.914C147.756 152.968 145.055 156.887 135.37 166.414C128.874 172.994 124.582 175.263 115.37 175.914Z" fill="rgb(135,212,205)" stroke="rgb(135,212,205)"/>
<path d="M11.5682 80.5505C16.3003 80.5505 20.1364 76.7143 20.1364 71.9822C20.1364 67.2501 16.3003 63.414 11.5682 63.414C6.83612 63.414 3 67.2501 3 71.9822C3 76.7143 6.83612 80.5505 11.5682 80.5505Z" fill="rgb(135,212,205)"/>
<path d="M8.56822 92.5504C13.3003 92.5504 17.1364 88.7143 17.1364 83.9822C17.1364 79.2501 13.3003 75.414 8.56822 75.414C3.83612 75.414 0 79.2501 0 83.9822C0 88.7143 3.83612 92.5504 8.56822 92.5504Z" fill="rgb(135,212,205)"/>
<path d="M107 109.414C114.732 109.414 121 103.146 121 95.414C121 87.682 114.732 81.414 107 81.414C99.268 81.414 93 87.682 93 95.414C93 103.146 99.268 109.414 107 109.414Z" fill="rgb(135,212,205)"/>
<path d="M117 102.414C130.807 102.414 142 91.2211 142 77.414C142 63.6069 130.807 52.414 117 52.414C103.193 52.414 92 63.6069 92 77.414C92 91.2211 103.193 102.414 117 102.414Z" fill="rgb(135,212,205)"/>
<path d="M134 134.414C147.807 134.414 159 123.221 159 109.414C159 95.6069 147.807 84.414 134 84.414C120.193 84.414 109 95.6069 109 109.414C109 123.221 120.193 134.414 134 134.414Z" fill="rgb(135,212,205)"/>
<path d="M120 130.414C127.732 130.414 134 124.146 134 116.414C134 108.682 127.732 102.414 120 102.414C112.268 102.414 106 108.682 106 116.414C106 124.146 112.268 130.414 120 130.414Z" fill="rgb(135,212,205)"/>
<path d="M123 178.414C111.143 176.762 105.057 175.14 98.5 166.914L148.5 126.414C154.484 134.117 155.638 138.879 155 147.914C154.556 155.663 152.928 159.791 148.5 166.914C140.299 175.806 134.509 177.807 123 178.414Z" fill="rgb(135,212,205)" stroke="rgb(135,212,205)"/>
<path d="M41.2623 32.7912C51.1601 34.6875 56.2076 36.3122 61.368 43.509L17.5963 75.4177C12.8948 68.6848 12.1287 64.6321 13.0523 57.0633C13.7577 50.5674 15.3029 47.1666 19.3308 41.3676C26.6064 34.243 31.5598 32.809 41.2623 32.7912Z" fill="rgb(135,212,205)" stroke="rgb(135,212,205)"/>
<path d="M116.644 41.5323C123.047 57.5998 125.397 66.3737 120.097 80.2276L35.7155 44.7209C40.7888 31.9437 45.7278 27.254 57.1026 21.9199C66.7853 17.2149 72.9287 16.4619 84.6768 17.2037C101.236 21.4991 107.756 27.4376 116.644 41.5323Z" fill="rgb(135,212,205)" stroke="rgb(135,212,205)"/>
<path d="M94.5273 91.0302L74.6818 98.414C74.0242 98.39 73.6555 98.3399 73 96.3044L73.3364 93.8431C73.63 92.9795 74.0047 92.6558 74.6818 92.085C81.7062 89.6146 92.8455 87.5141 93.5182 87.5141C94.1909 87.5141 95.9421 87.2889 97.2182 87.5141C98.114 87.69 98.8488 87.8687 100.245 88.2173C101.374 88.5892 102.502 89.3018 104.618 90.6786L110 95.6011L104.618 92.085C102.667 91.5173 101.693 91.2754 100.245 91.0302C98.122 90.5612 96.9043 90.4145 94.5273 91.0302Z" fill="rgb(135,212,205)" stroke="rgb(135,212,205)"/>
<path d="M36.4727 91.0302L56.3182 98.414C56.9758 98.39 57.3445 98.3399 58 96.3044L57.6636 93.8431C57.37 92.9795 56.9953 92.6558 56.3182 92.085C49.2938 89.6146 38.1545 87.5141 37.4818 87.5141C36.8091 87.5141 35.0579 87.2889 33.7818 87.5141C32.886 87.69 32.1512 87.8687 30.7545 88.2173C29.6261 88.5892 28.4979 89.3018 26.3818 90.6786L21 95.6011L26.3818 92.085C28.3328 91.5173 29.3074 91.2754 30.7545 91.0302C32.878 90.5612 34.0957 90.4145 36.4727 91.0302Z" fill="rgb(135,212,205)" stroke="rgb(135,212,205)"/>
</svg>
