<svg width="370" height="414" viewBox="0 0 370 414" fill="none" xmlns="http://www.w3.org/2000/svg">
<path d="M268.47 407.033C247.273 404.321 237.202 401.291 232.401 384.926L240.546 373.29L247.527 362.819L257.999 344.202L262.653 330.24L264.98 313.951V295.334L252.181 282.536L247.527 270.9V252.284L232.401 246.467L223.093 229.014L218.439 209.234C177.414 177.34 160.385 154.586 97.4326 140.586L79.9798 145.24L62.5269 156.875L47.4011 174.328L38.093 197.599L33.4389 209.234C33.4389 209.234 41.5835 227.85 38.093 229.014C34.6024 230.177 33.4389 229.014 33.4389 229.014H18.3131C14.152 228.257 11.8021 228.3 7.8414 222.033C7.59232 221.378 7.52364 220.291 7.8414 213.888C6.56467 208.808 6.8316 204.973 7.8414 197.599C10.1255 189.184 10.0455 184.973 18.3131 174.328C20.0519 165.453 22.3033 160.691 33.4389 153.385C30.6285 148.136 29.7576 145.256 33.4389 140.586L41.5835 118.479C44.8873 112.183 46.9796 108.579 54.3823 101.026C60.3775 94.2814 63.6139 90.214 70.6716 85.9005C76.3947 77.3109 87.9237 92.7736 97.4326 85.9005C105.733 80.8664 106.02 61.028 114.885 59.1395C121.051 56.5068 127.33 54.975 142.81 52.1584C151.902 48.7087 159.728 47.8647 176.552 47.5043C187.071 47.7739 194.113 49.3385 206.511 52.0934L206.804 52.1584C222.184 59.1615 229.249 62.6632 235.892 67.2841C248.333 73.9324 253.893 79.7169 262.653 91.7181C270.375 101.849 273.902 110.629 280.106 126.624C286.018 127.157 289.75 127.838 297.558 130.114C304.622 131.904 308.436 134.258 315.011 140.586C322.764 151.221 324.391 160.42 325.483 178.982C325.828 195.416 324.619 201.633 320.829 209.234C325.769 209.406 328.223 210.811 332.464 213.888C337.182 221.185 339.207 225.521 341.772 233.668C343.731 249.571 343.98 258.488 341.772 274.391C340.115 283.33 337.9 288.439 332.464 297.661C340.025 302.015 342.168 304.645 346.426 309.297C350.456 322.02 349.929 329.153 346.426 341.875C343.835 353.637 337.548 362.755 315.011 384.926C299.896 400.237 289.907 405.517 268.47 407.033Z" fill="#030E27" stroke="#030E27"/>
<path d="M26.9197 185.117C37.9315 185.117 46.8583 176.191 46.8583 165.179C46.8583 154.167 37.9315 145.24 26.9197 145.24C15.9079 145.24 6.98105 154.167 6.98105 165.179C6.98105 176.191 15.9079 185.117 26.9197 185.117Z" fill="#030E27"/>
<path d="M19.9386 213.042C30.9504 213.042 39.8772 204.115 39.8772 193.103C39.8772 182.091 30.9504 173.165 19.9386 173.165C8.92682 173.165 0 182.091 0 193.103C0 204.115 8.92682 213.042 19.9386 213.042Z" fill="#030E27"/>
<path d="M248.994 252.284C266.986 252.284 281.572 237.698 281.572 219.706C281.572 201.713 266.986 187.127 248.994 187.127C231.001 187.127 216.415 201.713 216.415 219.706C216.415 237.698 231.001 252.284 248.994 252.284Z" fill="#030E27"/>
<path d="M272.264 235.995C304.394 235.995 330.44 209.949 330.44 177.819C330.44 145.689 304.394 119.643 272.264 119.643C240.134 119.643 214.088 145.689 214.088 177.819C214.088 209.949 240.134 235.995 272.264 235.995Z" fill="#030E27"/>
<path d="M311.824 310.46C343.954 310.46 370 284.414 370 252.284C370 220.154 343.954 194.108 311.824 194.108C279.694 194.108 253.648 220.154 253.648 252.284C253.648 284.414 279.694 310.46 311.824 310.46Z" fill="#030E27"/>
<path d="M279.245 301.152C297.238 301.152 311.824 286.566 311.824 268.573C311.824 250.581 297.238 235.995 279.245 235.995C261.253 235.995 246.667 250.581 246.667 268.573C246.667 286.566 261.253 301.152 279.245 301.152Z" fill="#030E27"/>
<path d="M286.226 412.85C258.635 409.007 244.472 405.232 229.214 386.089L345.566 291.844C359.492 309.77 362.177 320.851 360.692 341.875C359.658 359.908 355.87 369.514 345.566 386.089C326.483 406.781 313.01 411.437 286.226 412.85Z" fill="#030E27" stroke="#030E27"/>
<path d="M96.0191 73.9795C119.052 78.3923 130.798 82.1731 142.806 98.9204L40.9473 173.173C30.0068 157.506 28.2238 148.075 30.3731 130.462C32.0146 115.346 35.6105 107.432 44.9836 93.9372C61.9141 77.358 73.4409 74.0209 96.0191 73.9795Z" fill="#030E27" stroke="#030E27"/>
<path d="M271.435 94.3206C286.335 131.71 291.804 152.128 279.472 184.366L83.1114 101.741C94.9172 72.0074 106.411 61.0944 132.88 48.6816C155.412 37.7329 169.708 35.9806 197.047 37.7068C235.58 47.7023 250.753 61.5216 271.435 94.3206Z" fill="#030E27" stroke="#030E27"/>
<path d="M219.969 209.504L173.788 226.687C172.258 226.631 171.4 226.514 169.874 221.777L170.657 216.05C171.34 214.04 172.212 213.287 173.788 211.959C190.134 206.21 216.055 201.322 217.621 201.322C219.186 201.322 223.261 200.798 226.231 201.322C228.315 201.731 230.025 202.147 233.276 202.959C235.902 203.824 238.527 205.482 243.451 208.686L255.975 220.141L243.451 211.959C238.911 210.638 236.643 210.075 233.276 209.504C228.334 208.413 225.501 208.071 219.969 209.504Z" fill="#030E27" stroke="#030E27"/>
<path d="M84.8737 209.504L131.055 226.687C132.585 226.631 133.443 226.514 134.969 221.777L134.186 216.05C133.503 214.04 132.631 213.287 131.055 211.959C114.709 206.21 88.7873 201.322 87.2219 201.322C85.6564 201.322 81.5813 200.798 78.6118 201.322C76.5273 201.731 74.8174 202.147 71.5672 202.959C68.9412 203.824 66.316 205.482 61.3917 208.686L48.8679 220.141L61.3917 211.959C65.9317 210.638 68.1995 210.075 71.5672 209.504C76.5085 208.413 79.3422 208.071 84.8737 209.504Z" fill="#030E27" stroke="#030E27"/>
</svg>
