<?xml version="1.0" ?><svg height="100" version="1.1" width="100.0" xmlns="http://www.w3.org/2000/svg"><path d="M417,246.5 c70.5,0,131,43,183,98.5 c61,-65,121.5,-99,179.5,-99 c83,0,159,69.5,158.5,158.5 c0,20,-3,40,-9.5,57.5 c-76,168,-104.5,227.5,-206.5,426.5 c-35.5,60,-66,85.5,-122,85.5 c-60.5,0,-94.5,-33.5,-122,-84.5 c-91,-179,-187,-377.5,-206,-426.5 c-7,-19.5,-10.5,-39,-10.5,-58 c0,-86.5,68,-158.5,155.5,-158.5 Z M599.5,422.5 c-41.5,52.5,-76,115.5,-76,165 c0,40,29,74.5,76.5,74.5 c45,0,76.5,-32.5,76.5,-74.5 c0,-51.5,-37,-114.5,-77,-165 Z M569.5,386 c-44,-48.5,-94,-89,-152.5,-89 c-59.5,0,-105.5,49,-105.5,108 c0,12.5,2,26,7,39.5 c17.5,46,105,227,203.5,421 c18.5,34,35.5,58.5,77.5,58.5 c40.5,0,55.5,-20,78,-58.5 c113,-221.5,134.5,-265.5,203.5,-421 c5,-13,7.5,-26,7.5,-39 c0,-60,-50,-109.5,-109,-109.5 c-53,0,-104,40,-149.5,90.5 c63.5,79,92,146.5,92,200.5 c0.5,67.5,-48.5,120.5,-122,120.5 c-75.5,0,-122,-55,-122,-125 c0.5,-64,43,-134,91.5,-196.5 Z M1098,1200 l-996,0 c-59,0,-102,-43,-102,-102 l0,-996 c0,-59,43,-102,102,-102 l996,0 c59,0,102,43,102,102 l0,996 c0,59,-43,102,-102,102 Z M1150,1099 l0,-998 c0,-29.5,-21.5,-51,-51,-51 l-998,0 c-29.5,0,-51,21.5,-51,51 l0,998 c0,29.5,21.5,51,51,51 l998,0 c29.5,0,51,-21.5,51,-51 Z M1150,1099 " fill="rgba(0,0,0,1.0)" transform="matrix(0.05,0.0,0.0,-0.05,20.0,80.0)"/></svg>