<?xml version="1.0" ?><svg height="100" version="1.1" width="100.0" xmlns="http://www.w3.org/2000/svg"><path d="M250,300 l158.5,0 c133,0,201.5,59.5,201.5,162 c0,102,-68.5,163,-201.5,163 l0,-30 c9,-1,18.5,-1.5,28,-1.5 c92.5,0,143.5,52,143.5,147 c0,101,-57.5,159.5,-171.5,159.5 l-158.5,0 Z M300,635 l0,214.5 l108.5,0 c83.5,0,122,-37.5,122,-105 c0,-68,-39,-109.5,-122,-109.5 Z M300,350.5 l0,234.5 l108.5,0 c22,0,151.5,0,151.5,-120.5 c0,-74.5,-50,-114,-151.5,-114 Z M1012.5,488 l0,37.5 c0,119.5,-66,185,-174.5,185 c-112.5,0,-181,-79.5,-181,-199 c0,-130,73,-217,192.5,-217 c59,0,115.5,26,148.5,85 l-38,22.5 c-25.5,-40.5,-66,-58,-109.5,-58 c-90.5,0,-144.5,67,-144.5,167.5 c0,89,49,148.5,132,148.5 c78.5,0,124.5,-45.5,124.5,-134.5 l22,11.5 l-289.5,0 l0,-49 Z M946,778 l0,49 l-212.5,0 l0,-49 Z M1098,1200 l-996,0 c-59,0,-102,-43,-102,-102 l0,-996 c0,-59,43,-102,102,-102 l996,0 c59,0,102,43,102,102 l0,996 c0,59,-43,102,-102,102 Z M1150,1099 l0,-998 c0,-29.5,-21.5,-51,-51,-51 l-998,0 c-29.5,0,-51,21.5,-51,51 l0,998 c0,29.5,21.5,51,51,51 l998,0 c29.5,0,51,-21.5,51,-51 Z M1150,1099 " fill="rgba(0,0,0,1.0)" transform="matrix(0.05,0.0,0.0,-0.05,20.0,80.0)"/></svg>