<?xml version="1.0" ?><svg height="100" version="1.1" width="100.0" xmlns="http://www.w3.org/2000/svg"><path d="M1015,745.5 l-399.5,270 c-8,5.5,-20,5.5,-28,0 l-399.5,-270 c-6.5,-4.5,-11,-12.5,-11,-20.5 l0,-250 c0,-8,4.5,-16,11,-20.5 l399.5,-270 c8,-5.5,19.5,-5.5,28,0 l399.5,270 c6.5,4.5,11,12.5,11,20.5 l0,250 c0,8,-4,16,-11,20.5 Z M576.5,758 l-189.5,-128 l-140.5,95 l330,223 Z M626.5,758 l0,190 l330,-223 l-140.5,-95 Z M601.5,485 l-170,115 l170,115 l170,-115 Z M227,678 l115.5,-78 l-115.5,-78 Z M976,522 l-115.5,78 l115.5,78 Z M387,570 l189.5,-128 l0,-190 l-330,223 Z M626.5,442 l189.5,128 l140.5,-95 l-330,-223 Z M1098,1200 l-996,0 c-59,0,-102,-43,-102,-102 l0,-996 c0,-59,43,-102,102,-102 l996,0 c59,0,102,43,102,102 l0,996 c0,59,-43,102,-102,102 Z M1150,1099 l0,-998 c0,-29.5,-21.5,-51,-51,-51 l-998,0 c-29.5,0,-51,21.5,-51,51 l0,998 c0,29.5,21.5,51,51,51 l998,0 c29.5,0,51,-21.5,51,-51 Z M1150,1099 " fill="rgba(0,0,0,1.0)" transform="matrix(0.05,0.0,0.0,-0.05,20.0,80.0)"/></svg>