<?xml version="1.0" ?><svg height="100" version="1.1" width="100.0" xmlns="http://www.w3.org/2000/svg"><path d="M600,0 c331,0,600,269,600,600 c0,331,-269,600,-600,600 c-331,0,-600,-269,-600,-600 c0,-331,269,-600,600,-600 Z M600,50 c-303.5,0,-550,246.5,-550,550 c0,303.5,246.5,550,550,550 c303.5,0,550,-246.5,550,-550 c0,-303.5,-246.5,-550,-550,-550 Z M1158.5,581.5 c-350.5,69.5,-668.5,-49.5,-958,-372.5 l32,-47 c242.5,296,578,461,933.5,368 Z M893.5,124 c-61.5,344.5,-233,751,-445,1010 l-55.5,-9 c221.5,-261,402.5,-704.5,458,-1046.5 Z M994.5,1028.5 c-237,-267.5,-477,-347,-958,-315 l-3,-50 c504,-33,761,55.5,1007,346 Z M994.5,1028.5 " fill="rgba(0,0,0,1.0)" transform="matrix(0.05,0.0,0.0,-0.05,20.0,80.0)"/></svg>