<?xml version="1.0" ?><svg height="100" version="1.1" width="100.0" xmlns="http://www.w3.org/2000/svg"><path d="M600,350 c138,0,250,113,250,250 c0,138,-112,250,-250,250 c-137,0,-250,-112,-250,-250 c0,-137,113,-250,250,-250 Z M600,400 c-109.5,0,-200,90.5,-200,200 c0,110.5,90.5,200,200,200 c110.5,0,200,-89.5,200,-200 c0,-109.5,-89.5,-200,-200,-200 Z M950,912.5 c21,0,37.5,17.5,37.5,37.5 c0,21,-16.5,37.5,-37.5,37.5 c-20,0,-37.5,-16.5,-37.5,-37.5 c0,-20,17.5,-37.5,37.5,-37.5 Z M1098,1200 l-996,0 c-59,0,-102,-43,-102,-102 l0,-996 c0,-59,43,-102,102,-102 l996,0 c59,0,102,43,102,102 l0,996 c0,59,-43,102,-102,102 Z M1150,1099 l0,-998 c0,-29.5,-21.5,-51,-51,-51 l-998,0 c-29.5,0,-51,21.5,-51,51 l0,998 c0,29.5,21.5,51,51,51 l998,0 c29.5,0,51,-21.5,51,-51 Z M1150,1099 " fill="rgba(0,0,0,1.0)" transform="matrix(0.05,0.0,0.0,-0.05,20.0,80.0)"/></svg>