<?xml version="1.0" ?><svg height="100" version="1.1" width="100.0" xmlns="http://www.w3.org/2000/svg"><path d="M417,296.5 c-43,0,-67,27.5,-67,81.5 l0,447 c0,50.5,23.5,78.5,65.5,78.5 c43.5,0,64,-24,64,-79.5 l0,-111 c0,-56.5,60,-75,91,-28.5 l129.5,187.5 c15.5,22.5,32,31.5,54,31.5 c37,0,67,-29,67,-64.5 c0,-13.5,-2.5,-22.5,-9.5,-32.5 l-117,-170 c-11.5,-17.5,-11,-44,2,-59.5 l143.5,-181 l-1,1 c8,-11,11,-19.5,11,-34 c0,-37,-29,-66.5,-65.5,-66.5 c-20.5,0,-32.5,5,-41.5,16 l0.5,-1 l-175,219 c-30.5,38,-89,17.5,-89,-31 l0,-121 c0,-56,-21,-82,-62.5,-82 Z M417,246.5 c73.5,0,112.5,52.5,112.5,132 l0,121 l175,-219 c18.5,-22.5,45.5,-34,80,-34 c64.5,0,115.5,52.5,115.5,116.5 c0,24.5,-7,45.5,-21,64 l-143.5,181 l117,170 c12,17.5,18.5,38,18.5,61 c0,63,-52.5,114.5,-117,114.5 c-38.5,0,-70.5,-17.5,-95,-53 l-129.5,-187.5 l0,111 c0,83,-42,129.5,-114,129.5 c-75,0,-115.5,-56.5,-115.5,-128.5 l0,-447 c0,-77.5,42,-131.5,117,-131.5 Z M21,24 l-18,0 c-1.5,0,-3,-1.5,-3,-3 l0,-18 c0,-1.5,1.5,-3,3,-3 l18,0 c1.5,0,3,1.5,3,3 l0,18 c0,1.5,-1.5,3,-3,3 Z M10.5,6 c0,-1,-0.5,-1.5,-1.5,-1.5 l-4.5,0 c-0.5,0,-1.5,0.5,-1.5,1.5 l0,13.5 c0,0.5,1,1.5,1.5,1.5 l4.5,0 c1,0,1.5,-1,1.5,-1.5 Z M21,12 c0,-1,-1,-1.5,-1.5,-1.5 l-4.5,0 c-1,0,-1.5,0.5,-1.5,1.5 l0,7.5 c0,0.5,0.5,1.5,1.5,1.5 l4.5,0 c0.5,0,1.5,-1,1.5,-1.5 Z M1098,1200 l-996,0 c-59,0,-102,-43,-102,-102 l0,-996 c0,-59,43,-102,102,-102 l996,0 c59,0,102,43,102,102 l0,996 c0,59,-43,102,-102,102 Z M1150,1099 l0,-998 c0,-29.5,-21.5,-51,-51,-51 l-998,0 c-29.5,0,-51,21.5,-51,51 l0,998 c0,29.5,21.5,51,51,51 l998,0 c29.5,0,51,-21.5,51,-51 Z M1150,1099 " fill="rgba(0,0,0,1.0)" transform="matrix(0.05,0.0,0.0,-0.05,20.0,80.0)"/></svg>