<?xml version="1.0" ?><svg height="100" version="1.1" width="100" xmlns="http://www.w3.org/2000/svg"><path d="M737.5,722.5 c-122.5,0,-192.5,-84.5,-192.5,-223.5 l0,-205 l30,0 l0,205 c0,109,63.5,173.5,157,173.5 c118,0,118,-102.5,118,-148.5 l0,-230 l50,0 l0,230 c0,140.5,-60.5,198.5,-162.5,198.5 Z M325,294 l50,0 l0,418.5 l-50,0 Z M525,294 l50,0 l0,418.5 l-50,0 Z M350,800 c-27.5,0,-50,22.5,-50,50 c0,27.5,22.5,50,50,50 c27.5,0,50,-22.5,50,-50 c0,-27.5,-22.5,-50,-50,-50 Z M1098,1200 l-996,0 c-59,0,-102,-43,-102,-102 l0,-996 c0,-59,43,-102,102,-102 l996,0 c59,0,102,43,102,102 l0,996 c0,59,-43,102,-102,102 Z M1150,1099 l0,-998 c0,-29.5,-21.5,-51,-51,-51 l-998,0 c-29.5,0,-51,21.5,-51,51 l0,998 c0,29.5,21.5,51,51,51 l998,0 c29.5,0,51,-21.5,51,-51 Z M1150,1099 " fill="rgba(0,0,0,1.0)" transform="matrix(0.05,0.0,0.0,-0.05,20.0,80.0)"/></svg>