<?xml version="1.0" ?><svg height="100" version="1.1" width="100.0" xmlns="http://www.w3.org/2000/svg"><path d="M875,375 l0,500 l-50.5,0 l-224.5,-432.5 l-224.5,432.5 l-50.5,0 l0,-500 l-75,0 l0,-50 l125,0 l0,444.5 l225,-437.5 l225,437.5 l0,-444.5 l125,0 l0,50 Z M250,875 l0,-50 l75,0 l0,50 Z M875,875 l0,-50 l75,0 l0,50 Z M1098,1200 l-996,0 c-59,0,-102,-43,-102,-102 l0,-996 c0,-59,43,-102,102,-102 l996,0 c59,0,102,43,102,102 l0,996 c0,59,-43,102,-102,102 Z M1150,1099 l0,-998 c0,-29.5,-21.5,-51,-51,-51 l-998,0 c-29.5,0,-51,21.5,-51,51 l0,998 c0,29.5,21.5,51,51,51 l998,0 c29.5,0,51,-21.5,51,-51 Z M1150,1099 " fill="rgba(0,0,0,1.0)" transform="matrix(0.05,0.0,0.0,-0.05,20.0,80.0)"/></svg>