<svg width="100" height="100" viewBox="0 0 100 100" fill="none" xmlns="http://www.w3.org/2000/svg">
<path d="M63.75 61.25V36.25H61.225L50 57.875L38.775 36.25H36.25V61.25H32.5V63.75H38.75V41.525L50 63.4L61.25 41.525V63.75H67.5V61.25H63.75ZM32.5 36.25V38.75H36.25V36.25H32.5ZM63.75 36.25V38.75H67.5V36.25H63.75ZM74.9 20H25.1C22.15 20 20 22.15 20 25.1V74.9C20 77.85 22.15 80 25.1 80H74.9C77.85 80 80 77.85 80 74.9V25.1C80 22.15 77.85 20 74.9 20ZM77.5 25.05V74.95C77.5 76.425 76.425 77.5 74.95 77.5H25.05C23.575 77.5 22.5 76.425 22.5 74.95V25.05C22.5 23.575 23.575 22.5 25.05 22.5H74.95C76.425 22.5 77.5 23.575 77.5 25.05Z" fill="black"/>
</svg>
