<?xml version="1.0" ?><svg height="100" version="1.1" width="100.0" xmlns="http://www.w3.org/2000/svg"><path d="M545,601.5 c107.5,0,179.5,64.5,179.5,161.5 c0,97,-72,162,-179.5,162 l-195,0 l0,-500 l50,0 l0,176.5 Z M400.5,875.5 l144.5,0 c78,0,130,-45,130,-112.5 c0,-68,-52,-113,-130,-113 l-145,0 Z M808.5,673 c10.5,-16.5,16.5,-37,16.5,-60 c0,-68,-52,-113,-130,-113 l-195,0 l0,-225 l50,0 l0,176.5 l145,0 c107.5,0,179.5,64.5,179.5,161.5 c0,49.5,-19,91,-52,119.5 c-2,-21,-7,-42,-14,-59.5 Z M1098,1200 l-996,0 c-59,0,-102,-43,-102,-102 l0,-996 c0,-59,43,-102,102,-102 l996,0 c59,0,102,43,102,102 l0,996 c0,59,-43,102,-102,102 Z M1150,1099 l0,-998 c0,-29.5,-21.5,-51,-51,-51 l-998,0 c-29.5,0,-51,21.5,-51,51 l0,998 c0,29.5,21.5,51,51,51 l998,0 c29.5,0,51,-21.5,51,-51 Z M1150,1099 " fill="rgba(0,0,0,1.0)" transform="matrix(0.05,0.0,0.0,-0.05,20.0,80.0)"/></svg>