<?xml version="1.0" ?><svg height="100" version="1.1" width="100.0" xmlns="http://www.w3.org/2000/svg"><path d="M0,50 l0,-50 M0,0 l1200,0 l0,0 l0,50 l0,0 l-1200,0 l0,0 l0,-50 Z M1200,0 l0,50 c-157,0,-250,112,-250,301 l-50,0 c0,-220.5,111.5,-351,300,-351 Z M300,651 l0,50 l-300,0 l0,-50 Z M900,651 l300,0 l0,50 l-300,0 Z M950,351 l0,450 c0,253.5,-130,402,-350,400 c-220,-2,-350,-150.5,-350,-400 l0,-450 l50,0 l0,450 c0,222.5,111.5,352.5,300,350 c188.5,-2.5,300,-132.5,300,-350 l0,-450 Z M0,0 c188.5,0,300,130.5,300,351 l-50,0 c0,-189,-93,-301,-250,-301 Z M0,0 " fill="rgba(0,0,0,1.0)" transform="matrix(0.05,0.0,0.0,-0.05,20.0,80.0)"/></svg>