<?xml version="1.0" ?><svg height="100" version="1.1" width="100.0" xmlns="http://www.w3.org/2000/svg"><path d="M1100,700 l-50,0 c0,-345.5,-216,-550,-581,-550 c-158.5,0,-291.5,28,-374.5,69.5 l-10,42 l-15.5,-60 l416.5,230.5 c-274.5,136,-481,361,-434.5,601 l-26,-43 l625,-242.5 l0,71.5 c0,155,83,231,193,231 c127.5,0,207,-101.5,207,-250 l50,0 c0,178.5,-101,300,-254,300 c-144.5,0,-246,-107.5,-246,-280 l-600,234 c-59.5,-269,174,-525.5,443,-648.5 l-39.5,35.5 l-419.5,-228 c123.5,-70,290.5,-113,491.5,-113 c392.5,0,624.5,223,624.5,600 Z M1050,850 l0,-50 l200,0 l0,50 Z M1050,850 " fill="rgba(0,0,0,1.0)" transform="matrix(0.05,0.0,0.0,-0.05,20.0,80.0)"/></svg>